<svg width="64" height="64" viewBox="0 0 64 64" fill="none" xmlns="http://www.w3.org/2000/svg">
  <path d="M32 10C20.4 10 11 19.2 11 30.6C11 34.3 12 37.8 14 40.8L11.5 50L21 47.6C24 49.2 27.4 50 31 50C42.6 50 52 40.8 52 29.4C52 18 42.6 10 32 10Z" stroke="#F3EDE5" stroke-width="3.2" stroke-linejoin="round"/>
  <path d="M25.5 23.5C24.7 23.5 24 24 23.6 24.8C22.9 26 22.4 27.7 23.2 29.8C24.7 33.8 28.2 37.5 32 39.5C33.9 40.5 35.5 40.3 36.7 39.8C37.5 39.5 38.1 38.8 38.4 38L39 36.2C39.1 35.9 39 35.5 38.6 35.3L35 33.7C34.7 33.5 34.3 33.6 34 33.9L32.8 35.2C32.6 35.4 32.2 35.5 31.9 35.3C30.6 34.6 28.8 32.9 27.9 31.4C27.7 31.1 27.7 30.8 27.9 30.5L28.9 29.1C29.1 28.8 29.2 28.4 29 28L27.7 24.3C27.5 23.8 27 23.5 26.5 23.5H25.5Z" fill="#F3EDE5"/>
</svg>